<svg xmlns="http://www.w3.org/2000/svg" viewBox="0 0 512 512"><rect width="512" height="512" rx="96" fill="#090909"/><rect x="22" y="22" width="468" height="468" rx="78" fill="none" stroke="#d6a928" stroke-width="12"/><circle cx="256" cy="188" r="112" fill="#111" stroke="#d6a928" stroke-width="7"/><path d="M180 145c10-39 55-53 76-20 22-33 67-19 77 20 34 0 48 44 21 63-9 7-20 9-31 8v39H189v-39c-11 1-22-1-31-8-27-19-13-63 22-63z" fill="none" stroke="#f0c84a" stroke-width="13" stroke-linejoin="round"/><text x="256" y="280" text-anchor="middle" font-family="Georgia,serif" font-size="96" font-weight="700" fill="#f0c84a">EC</text><rect x="76" y="330" width="360" height="105" rx="24" fill="#d6a928"/><text x="256" y="401" text-anchor="middle" font-family="Arial,sans-serif" font-size="64" font-weight="900" letter-spacing="4" fill="#090909">ADMIN</text></svg>